# xmcd
#
# Track frame offsets:
#	150
#	15314
#	31941
#	40525
#	50112
#	57800
#	75176
#	88625
#	102813
#	116295
#	124424
#	135605
#
# Disc length: 1899 seconds
#
# Revision: 0
# Processed by: cddbd v1.5.2PL0 Copyright (c) Steve Scherf et al.
# Submitted via: dBpowerAMP V4.0
#
DISCID=8707690c
DTITLE=Brent Amaker and the Rodeo - Please Stand By
DYEAR=2011
DGENRE=Alt. Country
TTITLE0=Johnny's Theme
TTITLE1=Man in Charge
TTITLE2=Break My Broken Heart
TTITLE3=Saddle Up
TTITLE4=U.S.A.
TTITLE5=Garden of Love
TTITLE6=Hammer Hits the Nail
TTITLE7=Talk Talk Talk Talk Talk
TTITLE8=Good to be on Top of the World
TTITLE9=Blood Dripping Blood
TTITLE10=Doomed
TTITLE11=Outro
EXTD=
EXTT0=
EXTT1=
EXTT2=
EXTT3=
EXTT4=
EXTT5=
EXTT6=
EXTT7=
EXTT8=
EXTT9=
EXTT10=
EXTT11=
PLAYORDER=
